<?xml version="1.0" encoding="UTF-8" standalone="no"?>
<!DOCTYPE svg PUBLIC "-//W3C//DTD SVG 1.1//EN"
 "http://www.w3.org/Graphics/SVG/1.1/DTD/svg11.dtd">
<!-- Generated by graphviz version 2.40.1 (0)
 -->
<!-- Title: G Pages: 1 -->
<svg width="778pt" height="416pt"
 viewBox="0.00 0.00 777.98 416.00" xmlns="http://www.w3.org/2000/svg" xmlns:xlink="http://www.w3.org/1999/xlink">
<g id="graph0" class="graph" transform="scale(1 1) rotate(0) translate(4 412)">
<title>G</title>
<polygon fill="#ffffff" stroke="transparent" points="-4,4 -4,-412 773.9801,-412 773.9801,4 -4,4"/>
<g id="clust1" class="cluster">
<title>cluster1</title>
<polygon fill="none" stroke="#000000" points="336,-314 336,-400 730,-400 730,-314 336,-314"/>
<text text-anchor="middle" x="533" y="-384.8" font-family="Times,serif" font-size="14.00" fill="#000000">file storage</text>
</g>
<g id="clust2" class="cluster">
<title>cluster2</title>
<polygon fill="none" stroke="#000000" points="8,-8 8,-306 666,-306 666,-8 8,-8"/>
<text text-anchor="middle" x="337" y="-290.8" font-family="Times,serif" font-size="14.00" fill="#000000">dynamic linear hash map</text>
</g>
<!-- file_storage -->
<g id="node1" class="node">
<title>file_storage</title>
<polygon fill="none" stroke="#000000" points="344.5,-322.5 344.5,-368.5 721.5,-368.5 721.5,-322.5 344.5,-322.5"/>
<text text-anchor="middle" x="392" y="-341.8" font-family="Times,serif" font-size="14.00" fill="#000000">primary space</text>
<polyline fill="none" stroke="#000000" points="439.5,-322.5 439.5,-368.5 "/>
<text text-anchor="middle" x="580.5" y="-353.3" font-family="Times,serif" font-size="14.00" fill="#000000">space (mmap)</text>
<polyline fill="none" stroke="#000000" points="439.5,-345.5 721.5,-345.5 "/>
<text text-anchor="middle" x="449.5" y="-330.3" font-family="Times,serif" font-size="14.00" fill="#000000"> </text>
<polyline fill="none" stroke="#000000" points="459.5,-322.5 459.5,-345.5 "/>
<text text-anchor="middle" x="478.5" y="-330.3" font-family="Times,serif" font-size="14.00" fill="#000000">free</text>
<polyline fill="none" stroke="#000000" points="497.5,-322.5 497.5,-345.5 "/>
<text text-anchor="middle" x="507.5" y="-330.3" font-family="Times,serif" font-size="14.00" fill="#000000"> </text>
<polyline fill="none" stroke="#000000" points="517.5,-322.5 517.5,-345.5 "/>
<text text-anchor="middle" x="527.5" y="-330.3" font-family="Times,serif" font-size="14.00" fill="#000000"> </text>
<polyline fill="none" stroke="#000000" points="537.5,-322.5 537.5,-345.5 "/>
<text text-anchor="middle" x="547.5" y="-330.3" font-family="Times,serif" font-size="14.00" fill="#000000"> </text>
<polyline fill="none" stroke="#000000" points="557.5,-322.5 557.5,-345.5 "/>
<text text-anchor="middle" x="576.5" y="-330.3" font-family="Times,serif" font-size="14.00" fill="#000000">free</text>
<polyline fill="none" stroke="#000000" points="595.5,-322.5 595.5,-345.5 "/>
<text text-anchor="middle" x="605.5" y="-330.3" font-family="Times,serif" font-size="14.00" fill="#000000"> </text>
<polyline fill="none" stroke="#000000" points="615.5,-322.5 615.5,-345.5 "/>
<text text-anchor="middle" x="625.5" y="-330.3" font-family="Times,serif" font-size="14.00" fill="#000000"> </text>
<polyline fill="none" stroke="#000000" points="635.5,-322.5 635.5,-345.5 "/>
<text text-anchor="middle" x="645.5" y="-330.3" font-family="Times,serif" font-size="14.00" fill="#000000"> </text>
<polyline fill="none" stroke="#000000" points="655.5,-322.5 655.5,-345.5 "/>
<text text-anchor="middle" x="674.5" y="-330.3" font-family="Times,serif" font-size="14.00" fill="#000000">free</text>
<polyline fill="none" stroke="#000000" points="693.5,-322.5 693.5,-345.5 "/>
<text text-anchor="middle" x="707.5" y="-330.3" font-family="Times,serif" font-size="14.00" fill="#000000">...</text>
</g>
<!-- slot_dirs -->
<g id="node2" class="node">
<title>slot_dirs</title>
<polygon fill="none" stroke="#000000" points="223,-228.5 223,-274.5 453,-274.5 453,-228.5 223,-228.5"/>
<text text-anchor="middle" x="338" y="-259.3" font-family="Times,serif" font-size="14.00" fill="#000000">slot dirs</text>
<polyline fill="none" stroke="#000000" points="223,-251.5 453,-251.5 "/>
<text text-anchor="middle" x="255.5" y="-236.3" font-family="Times,serif" font-size="14.00" fill="#000000">slot dir 1</text>
<polyline fill="none" stroke="#000000" points="288,-228.5 288,-251.5 "/>
<text text-anchor="middle" x="320.5" y="-236.3" font-family="Times,serif" font-size="14.00" fill="#000000">slot dir 2</text>
<polyline fill="none" stroke="#000000" points="353,-228.5 353,-251.5 "/>
<text text-anchor="middle" x="367" y="-236.3" font-family="Times,serif" font-size="14.00" fill="#000000">...</text>
<polyline fill="none" stroke="#000000" points="381,-228.5 381,-251.5 "/>
<text text-anchor="middle" x="417" y="-236.3" font-family="Times,serif" font-size="14.00" fill="#000000">slot dir 10</text>
</g>
<!-- file_storage&#45;&gt;slot_dirs -->
<g id="edge7" class="edge">
<title>file_storage:p1&#45;&gt;slot_dirs</title>
<path fill="none" stroke="#000000" d="M392,-322.5C392,-307.4007 384.1671,-293.504 374.4677,-282.0841"/>
<polygon fill="#000000" stroke="#000000" points="376.8903,-279.5489 367.528,-274.5893 371.754,-284.3048 376.8903,-279.5489"/>
</g>
<!-- file_storage&#45;&gt;slot_dirs -->
<g id="edge8" class="edge">
<title>file_storage:p2&#45;&gt;slot_dirs</title>
<path fill="none" stroke="#000000" stroke-dasharray="1,5" d="M449,-322.5C449,-304.1636 438.1178,-290.3491 423.168,-280.0225"/>
<polygon fill="#000000" stroke="#000000" points="424.8302,-276.9349 414.4874,-274.6378 421.1402,-282.8834 424.8302,-276.9349"/>
</g>
<!-- slot_dir1 -->
<g id="node3" class="node">
<title>slot_dir1</title>
<polygon fill="none" stroke="#000000" points="16,-145.5 16,-191.5 198,-191.5 198,-145.5 16,-145.5"/>
<text text-anchor="middle" x="107" y="-176.3" font-family="Times,serif" font-size="14.00" fill="#000000">slot dir</text>
<polyline fill="none" stroke="#000000" points="16,-168.5 198,-168.5 "/>
<text text-anchor="middle" x="39.5" y="-153.3" font-family="Times,serif" font-size="14.00" fill="#000000">slot 1</text>
<polyline fill="none" stroke="#000000" points="63,-145.5 63,-168.5 "/>
<text text-anchor="middle" x="86.5" y="-153.3" font-family="Times,serif" font-size="14.00" fill="#000000">slot 2</text>
<polyline fill="none" stroke="#000000" points="110,-145.5 110,-168.5 "/>
<text text-anchor="middle" x="124" y="-153.3" font-family="Times,serif" font-size="14.00" fill="#000000">...</text>
<polyline fill="none" stroke="#000000" points="138,-145.5 138,-168.5 "/>
<text text-anchor="middle" x="168" y="-153.3" font-family="Times,serif" font-size="14.00" fill="#000000">slot 100</text>
</g>
<!-- file_storage&#45;&gt;slot_dir1 -->
<g id="edge9" class="edge">
<title>file_storage:p3&#45;&gt;slot_dir1</title>
<path fill="none" stroke="#000000" stroke-dasharray="1,5" d="M507,-322.5C507,-313.4324 499.4623,-313.8937 495,-306 476.476,-273.2319 491.8423,-250.9417 462,-228 418.8444,-194.8235 277.9677,-201.741 208.3487,-191.9431"/>
<polygon fill="#000000" stroke="#000000" points="208.6456,-188.4455 198.2133,-190.2944 207.5216,-195.3547 208.6456,-188.4455"/>
</g>
<!-- slot_dir2 -->
<g id="node4" class="node">
<title>slot_dir2</title>
<polygon fill="none" stroke="#000000" points="216,-145.5 216,-191.5 424,-191.5 424,-145.5 216,-145.5"/>
<text text-anchor="middle" x="320" y="-176.3" font-family="Times,serif" font-size="14.00" fill="#000000">slor dir</text>
<polyline fill="none" stroke="#000000" points="216,-168.5 424,-168.5 "/>
<text text-anchor="middle" x="246" y="-153.3" font-family="Times,serif" font-size="14.00" fill="#000000">slot 101</text>
<polyline fill="none" stroke="#000000" points="276,-145.5 276,-168.5 "/>
<text text-anchor="middle" x="306" y="-153.3" font-family="Times,serif" font-size="14.00" fill="#000000">slot 102</text>
<polyline fill="none" stroke="#000000" points="336,-145.5 336,-168.5 "/>
<text text-anchor="middle" x="350" y="-153.3" font-family="Times,serif" font-size="14.00" fill="#000000">...</text>
<polyline fill="none" stroke="#000000" points="364,-145.5 364,-168.5 "/>
<text text-anchor="middle" x="394" y="-153.3" font-family="Times,serif" font-size="14.00" fill="#000000">slot 200</text>
</g>
<!-- file_storage&#45;&gt;slot_dir2 -->
<g id="edge10" class="edge">
<title>file_storage:p4&#45;&gt;slot_dir2</title>
<path fill="none" stroke="#000000" stroke-dasharray="1,5" d="M527,-322.5C527,-278.1573 526.3357,-259.3743 495,-228 483.3902,-216.3759 453.0716,-204.5317 420.8675,-194.5032"/>
<polygon fill="#000000" stroke="#000000" points="421.8776,-191.1522 411.2917,-191.5884 419.8391,-197.8488 421.8776,-191.1522"/>
</g>
<!-- slot_dir3 -->
<g id="node5" class="node">
<title>slot_dir3</title>
<polygon fill="none" stroke="#000000" points="442.5,-145.5 442.5,-191.5 657.5,-191.5 657.5,-145.5 442.5,-145.5"/>
<text text-anchor="middle" x="550" y="-176.3" font-family="Times,serif" font-size="14.00" fill="#000000">slot dir</text>
<polyline fill="none" stroke="#000000" points="442.5,-168.5 657.5,-168.5 "/>
<text text-anchor="middle" x="472.5" y="-153.3" font-family="Times,serif" font-size="14.00" fill="#000000">slot 901</text>
<polyline fill="none" stroke="#000000" points="502.5,-145.5 502.5,-168.5 "/>
<text text-anchor="middle" x="532.5" y="-153.3" font-family="Times,serif" font-size="14.00" fill="#000000">slot 902</text>
<polyline fill="none" stroke="#000000" points="562.5,-145.5 562.5,-168.5 "/>
<text text-anchor="middle" x="576.5" y="-153.3" font-family="Times,serif" font-size="14.00" fill="#000000">...</text>
<polyline fill="none" stroke="#000000" points="590.5,-145.5 590.5,-168.5 "/>
<text text-anchor="middle" x="624" y="-153.3" font-family="Times,serif" font-size="14.00" fill="#000000">slot 1000</text>
</g>
<!-- file_storage&#45;&gt;slot_dir3 -->
<g id="edge11" class="edge">
<title>file_storage:p5&#45;&gt;slot_dir3</title>
<path fill="none" stroke="#000000" stroke-dasharray="1,5" d="M548,-322.5C548,-281.0017 548.7351,-233.2186 549.314,-202.0236"/>
<polygon fill="#000000" stroke="#000000" points="552.8191,-201.7838 549.5107,-191.7188 545.8204,-201.6501 552.8191,-201.7838"/>
</g>
<!-- items1 -->
<g id="node6" class="node">
<title>items1</title>
<polygon fill="none" stroke="#000000" points="77,-16.5 77,-108.5 229,-108.5 229,-16.5 77,-16.5"/>
<text text-anchor="middle" x="100.5" y="-58.8" font-family="Times,serif" font-size="14.00" fill="#000000">items</text>
<polyline fill="none" stroke="#000000" points="124,-16.5 124,-108.5 "/>
<text text-anchor="middle" x="176.5" y="-93.3" font-family="Times,serif" font-size="14.00" fill="#000000">key=A value=D</text>
<polyline fill="none" stroke="#000000" points="124,-85.5 229,-85.5 "/>
<text text-anchor="middle" x="176.5" y="-70.3" font-family="Times,serif" font-size="14.00" fill="#000000">key=B value=E</text>
<polyline fill="none" stroke="#000000" points="124,-62.5 229,-62.5 "/>
<text text-anchor="middle" x="176.5" y="-47.3" font-family="Times,serif" font-size="14.00" fill="#000000">key=C value=F</text>
<polyline fill="none" stroke="#000000" points="124,-39.5 229,-39.5 "/>
<text text-anchor="middle" x="176.5" y="-24.3" font-family="Times,serif" font-size="14.00" fill="#000000">...</text>
</g>
<!-- file_storage&#45;&gt;items1 -->
<g id="edge12" class="edge">
<title>file_storage:p6&#45;&gt;items1</title>
<path fill="none" stroke="#000000" stroke-dasharray="1,5" d="M606,-322.5C606,-239.0826 723.3266,-206.5287 667,-145 605.6901,-78.0277 347.9953,-131.3836 260,-109 252.9824,-107.2149 245.8381,-105.0216 238.7394,-102.5688"/>
<polygon fill="#000000" stroke="#000000" points="239.6979,-99.1935 229.1037,-99.0773 237.3132,-105.7748 239.6979,-99.1935"/>
</g>
<!-- items2 -->
<g id="node7" class="node">
<title>items2</title>
<polygon fill="none" stroke="#000000" points="269,-16.5 269,-108.5 421,-108.5 421,-16.5 269,-16.5"/>
<text text-anchor="middle" x="292.5" y="-58.8" font-family="Times,serif" font-size="14.00" fill="#000000">items</text>
<polyline fill="none" stroke="#000000" points="316,-16.5 316,-108.5 "/>
<text text-anchor="middle" x="368.5" y="-93.3" font-family="Times,serif" font-size="14.00" fill="#000000">key=G value=J</text>
<polyline fill="none" stroke="#000000" points="316,-85.5 421,-85.5 "/>
<text text-anchor="middle" x="368.5" y="-70.3" font-family="Times,serif" font-size="14.00" fill="#000000">key=H value=K</text>
<polyline fill="none" stroke="#000000" points="316,-62.5 421,-62.5 "/>
<text text-anchor="middle" x="368.5" y="-47.3" font-family="Times,serif" font-size="14.00" fill="#000000">key=I value=L</text>
<polyline fill="none" stroke="#000000" points="316,-39.5 421,-39.5 "/>
<text text-anchor="middle" x="368.5" y="-24.3" font-family="Times,serif" font-size="14.00" fill="#000000">...</text>
</g>
<!-- file_storage&#45;&gt;items2 -->
<g id="edge13" class="edge">
<title>file_storage:p7&#45;&gt;items2</title>
<path fill="none" stroke="#000000" stroke-dasharray="1,5" d="M626,-322.5C626,-288.8035 678.9246,-332.2922 700,-306 744.7543,-250.1677 746.5029,-199.3845 700,-145 666.5219,-105.8478 520.8515,-121.981 471,-109 457.8358,-105.5721 444.1279,-101.2917 430.8078,-96.7253"/>
<polygon fill="#000000" stroke="#000000" points="431.7854,-93.3593 421.1906,-93.3578 429.472,-99.966 431.7854,-93.3593"/>
</g>
<!-- items3 -->
<g id="node8" class="node">
<title>items3</title>
<polygon fill="none" stroke="#000000" points="479.5,-16.5 479.5,-108.5 632.5,-108.5 632.5,-16.5 479.5,-16.5"/>
<text text-anchor="middle" x="503" y="-58.8" font-family="Times,serif" font-size="14.00" fill="#000000">items</text>
<polyline fill="none" stroke="#000000" points="526.5,-16.5 526.5,-108.5 "/>
<text text-anchor="middle" x="579.5" y="-93.3" font-family="Times,serif" font-size="14.00" fill="#000000">key=M value=P</text>
<polyline fill="none" stroke="#000000" points="526.5,-85.5 632.5,-85.5 "/>
<text text-anchor="middle" x="579.5" y="-70.3" font-family="Times,serif" font-size="14.00" fill="#000000">key=N value=Q</text>
<polyline fill="none" stroke="#000000" points="526.5,-62.5 632.5,-62.5 "/>
<text text-anchor="middle" x="579.5" y="-47.3" font-family="Times,serif" font-size="14.00" fill="#000000">key=O value=R</text>
<polyline fill="none" stroke="#000000" points="526.5,-39.5 632.5,-39.5 "/>
<text text-anchor="middle" x="579.5" y="-24.3" font-family="Times,serif" font-size="14.00" fill="#000000">...</text>
</g>
<!-- file_storage&#45;&gt;items3 -->
<g id="edge14" class="edge">
<title>file_storage:p8&#45;&gt;items3</title>
<path fill="none" stroke="#000000" stroke-dasharray="1,5" d="M646,-322.5C646,-280.9587 711.3444,-337.8615 738,-306 783.9147,-251.118 776.7703,-205.142 738,-145 716.6039,-111.8096 678.2526,-91.8241 642.2541,-79.8626"/>
<polygon fill="#000000" stroke="#000000" points="643.2631,-76.5109 632.6736,-76.8444 641.1598,-83.1875 643.2631,-76.5109"/>
</g>
<!-- slot_dirs&#45;&gt;slot_dir1 -->
<g id="edge1" class="edge">
<title>slot_dirs:p1&#45;&gt;slot_dir1</title>
<path fill="none" stroke="#000000" d="M223,-239.5C189.7738,-239.5 158.0259,-218.0473 136.1703,-198.7262"/>
<polygon fill="#000000" stroke="#000000" points="138.3115,-195.9404 128.5814,-191.7481 133.5735,-201.0931 138.3115,-195.9404"/>
</g>
<!-- slot_dirs&#45;&gt;slot_dir2 -->
<g id="edge2" class="edge">
<title>slot_dirs:p2&#45;&gt;slot_dir2</title>
<path fill="none" stroke="#000000" d="M320,-228.5C320,-219.8354 320,-210.4671 320,-201.767"/>
<polygon fill="#000000" stroke="#000000" points="323.5001,-201.5785 320,-191.5785 316.5001,-201.5785 323.5001,-201.5785"/>
</g>
<!-- slot_dirs&#45;&gt;slot_dir3 -->
<g id="edge3" class="edge">
<title>slot_dirs:p3&#45;&gt;slot_dir3</title>
<path fill="none" stroke="#000000" d="M453,-239.5C482.1097,-239.5 508.2946,-218.422 526.1001,-199.2351"/>
<polygon fill="#000000" stroke="#000000" points="528.7221,-201.5535 532.735,-191.7481 523.4832,-196.9109 528.7221,-201.5535"/>
</g>
<!-- slot_dir1&#45;&gt;items1 -->
<g id="edge4" class="edge">
<title>slot_dir1:p2&#45;&gt;items1</title>
<path fill="none" stroke="#000000" d="M86,-145.5C86,-135.6041 88.9194,-126.223 93.5393,-117.573"/>
<polygon fill="#000000" stroke="#000000" points="96.6579,-119.1834 98.9183,-108.8325 90.6963,-115.5146 96.6579,-119.1834"/>
</g>
<!-- slot_dir2&#45;&gt;items2 -->
<g id="edge5" class="edge">
<title>slot_dir2:p2&#45;&gt;items2</title>
<path fill="none" stroke="#000000" d="M306,-145.5C306,-136.2632 308.003,-126.9503 311.1011,-118.07"/>
<polygon fill="#000000" stroke="#000000" points="314.4127,-119.2138 314.8497,-108.6279 307.9067,-116.6307 314.4127,-119.2138"/>
</g>
<!-- slot_dir3&#45;&gt;items3 -->
<g id="edge6" class="edge">
<title>slot_dir3:p2&#45;&gt;items3</title>
<path fill="none" stroke="#000000" d="M532,-145.5C532,-136.6722 533.2684,-127.5168 535.222,-118.651"/>
<polygon fill="#000000" stroke="#000000" points="538.6555,-119.3475 537.6877,-108.797 531.8649,-117.6483 538.6555,-119.3475"/>
</g>
</g>
</svg>
