<?xml version="1.0" encoding="UTF-8" standalone="no"?>
<!DOCTYPE svg PUBLIC "-//W3C//DTD SVG 1.1//EN"
 "http://www.w3.org/Graphics/SVG/1.1/DTD/svg11.dtd">
<!-- Generated by graphviz version 2.40.1 (0)
 -->
<!-- Title: G Pages: 1 -->
<svg width="797pt" height="158pt"
 viewBox="0.00 0.00 797.00 158.00" xmlns="http://www.w3.org/2000/svg" xmlns:xlink="http://www.w3.org/1999/xlink">
<g id="graph0" class="graph" transform="scale(1 1) rotate(0) translate(4 154)">
<title>G</title>
<polygon fill="#ffffff" stroke="transparent" points="-4,4 -4,-154 793,-154 793,4 -4,4"/>
<!-- leaf -->
<g id="node1" class="node">
<title>leaf</title>
<polygon fill="none" stroke="#000000" points="0,-50.5 0,-149.5 771,-149.5 771,-50.5 0,-50.5"/>
<text text-anchor="middle" x="385.5" y="-134.3" font-family="Times,serif" font-size="14.00" fill="#000000">non&#45;leaf (8192 bytes)</text>
<polyline fill="none" stroke="#000000" points="0,-126.5 771,-126.5 "/>
<text text-anchor="middle" x="38.5" y="-92.3" font-family="Times,serif" font-size="14.00" fill="#000000">child count</text>
<text text-anchor="middle" x="38.5" y="-77.3" font-family="Times,serif" font-size="14.00" fill="#000000">(4 bytes)</text>
<polyline fill="none" stroke="#000000" points="77,-50.5 77,-126.5 "/>
<text text-anchor="middle" x="142" y="-111.3" font-family="Times,serif" font-size="14.00" fill="#000000">child header 1</text>
<polyline fill="none" stroke="#000000" points="77,-103.5 207,-103.5 "/>
<text text-anchor="middle" x="109.5" y="-88.3" font-family="Times,serif" font-size="14.00" fill="#000000">key 1</text>
<text text-anchor="middle" x="109.5" y="-73.3" font-family="Times,serif" font-size="14.00" fill="#000000">offset</text>
<text text-anchor="middle" x="109.5" y="-58.3" font-family="Times,serif" font-size="14.00" fill="#000000">(4 bytes)</text>
<polyline fill="none" stroke="#000000" points="142,-50.5 142,-103.5 "/>
<text text-anchor="middle" x="174.5" y="-88.3" font-family="Times,serif" font-size="14.00" fill="#000000">child 1</text>
<text text-anchor="middle" x="174.5" y="-73.3" font-family="Times,serif" font-size="14.00" fill="#000000">addr</text>
<text text-anchor="middle" x="174.5" y="-58.3" font-family="Times,serif" font-size="14.00" fill="#000000">(8 bytes)</text>
<polyline fill="none" stroke="#000000" points="207,-50.5 207,-126.5 "/>
<text text-anchor="middle" x="272" y="-111.3" font-family="Times,serif" font-size="14.00" fill="#000000">child header 2</text>
<polyline fill="none" stroke="#000000" points="207,-103.5 337,-103.5 "/>
<text text-anchor="middle" x="239.5" y="-88.3" font-family="Times,serif" font-size="14.00" fill="#000000">key 2</text>
<text text-anchor="middle" x="239.5" y="-73.3" font-family="Times,serif" font-size="14.00" fill="#000000">offset</text>
<text text-anchor="middle" x="239.5" y="-58.3" font-family="Times,serif" font-size="14.00" fill="#000000">(4 bytes)</text>
<polyline fill="none" stroke="#000000" points="272,-50.5 272,-103.5 "/>
<text text-anchor="middle" x="304.5" y="-88.3" font-family="Times,serif" font-size="14.00" fill="#000000">child 2</text>
<text text-anchor="middle" x="304.5" y="-73.3" font-family="Times,serif" font-size="14.00" fill="#000000">addr</text>
<text text-anchor="middle" x="304.5" y="-58.3" font-family="Times,serif" font-size="14.00" fill="#000000">(8 bytes)</text>
<polyline fill="none" stroke="#000000" points="337,-50.5 337,-126.5 "/>
<text text-anchor="middle" x="351" y="-84.8" font-family="Times,serif" font-size="14.00" fill="#000000">...</text>
<polyline fill="none" stroke="#000000" points="365,-50.5 365,-126.5 "/>
<text text-anchor="middle" x="430" y="-111.3" font-family="Times,serif" font-size="14.00" fill="#000000">child header 10</text>
<polyline fill="none" stroke="#000000" points="365,-103.5 495,-103.5 "/>
<text text-anchor="middle" x="397.5" y="-88.3" font-family="Times,serif" font-size="14.00" fill="#000000">key 10</text>
<text text-anchor="middle" x="397.5" y="-73.3" font-family="Times,serif" font-size="14.00" fill="#000000">offset</text>
<text text-anchor="middle" x="397.5" y="-58.3" font-family="Times,serif" font-size="14.00" fill="#000000">(4 bytes)</text>
<polyline fill="none" stroke="#000000" points="430,-50.5 430,-103.5 "/>
<text text-anchor="middle" x="462.5" y="-88.3" font-family="Times,serif" font-size="14.00" fill="#000000">child 10</text>
<text text-anchor="middle" x="462.5" y="-73.3" font-family="Times,serif" font-size="14.00" fill="#000000">addr</text>
<text text-anchor="middle" x="462.5" y="-58.3" font-family="Times,serif" font-size="14.00" fill="#000000">(8 bytes)</text>
<polyline fill="none" stroke="#000000" points="495,-50.5 495,-126.5 "/>
<text text-anchor="middle" x="545.5" y="-84.8" font-family="Times,serif" font-size="14.00" fill="#000000">... free space ...</text>
<polyline fill="none" stroke="#000000" points="596,-50.5 596,-126.5 "/>
<text text-anchor="middle" x="619.5" y="-92.3" font-family="Times,serif" font-size="14.00" fill="#000000">key 1</text>
<text text-anchor="middle" x="619.5" y="-77.3" font-family="Times,serif" font-size="14.00" fill="#000000">data</text>
<polyline fill="none" stroke="#000000" points="643,-50.5 643,-126.5 "/>
<text text-anchor="middle" x="666.5" y="-92.3" font-family="Times,serif" font-size="14.00" fill="#000000">key 2</text>
<text text-anchor="middle" x="666.5" y="-77.3" font-family="Times,serif" font-size="14.00" fill="#000000">data</text>
<polyline fill="none" stroke="#000000" points="690,-50.5 690,-126.5 "/>
<text text-anchor="middle" x="704" y="-84.8" font-family="Times,serif" font-size="14.00" fill="#000000">...</text>
<polyline fill="none" stroke="#000000" points="718,-50.5 718,-126.5 "/>
<text text-anchor="middle" x="744.5" y="-92.3" font-family="Times,serif" font-size="14.00" fill="#000000">key 10</text>
<text text-anchor="middle" x="744.5" y="-77.3" font-family="Times,serif" font-size="14.00" fill="#000000">data</text>
</g>
<!-- leaf&#45;&gt;leaf -->
<g id="edge1" class="edge">
<title>leaf:ko1&#45;&gt;leaf:kd1</title>
<path fill="none" stroke="#000000" d="M108.5593,-50.4948C117.5197,-24.3073 167.5313,0 364.5,0 522.0073,0 585.5428,-19.4588 609.2606,-42.2364"/>
<polygon fill="#000000" stroke="#000000" points="606.736,-44.6721 615.8557,-50.0649 612.0895,-40.162 606.736,-44.6721"/>
</g>
<!-- leaf&#45;&gt;leaf -->
<g id="edge2" class="edge">
<title>leaf:ko2&#45;&gt;leaf:kd2</title>
<path fill="none" stroke="#000000" d="M237.8799,-50.4948C244.8442,-24.3073 286.9941,0 453,0 584.5933,0 638.3583,-19.1219 658.4632,-41.643"/>
<polygon fill="#000000" stroke="#000000" points="655.7926,-43.928 664.4291,-50.0649 661.5046,-39.8816 655.7926,-43.928"/>
</g>
<!-- leaf&#45;&gt;leaf -->
<g id="edge3" class="edge">
<title>leaf:ko10&#45;&gt;leaf:kd10</title>
<path fill="none" stroke="#000000" d="M430.1999,-71.7247C569.6612,-52.177 789,-54.3232 789,-82.5 789,-95.948 786.6671,-103.4665 781.2727,-105.5271"/>
<polygon fill="#000000" stroke="#000000" points="781.3456,-102.0214 771.0938,-104.6955 780.7756,-108.9982 781.3456,-102.0214"/>
</g>
</g>
</svg>
