<?xml version="1.0" encoding="UTF-8" standalone="no"?>
<!DOCTYPE svg PUBLIC "-//W3C//DTD SVG 1.1//EN"
 "http://www.w3.org/Graphics/SVG/1.1/DTD/svg11.dtd">
<!-- Generated by graphviz version 2.40.1 (0)
 -->
<!-- Title: G Pages: 1 -->
<svg width="980pt" height="158pt"
 viewBox="0.00 0.00 980.00 158.00" xmlns="http://www.w3.org/2000/svg" xmlns:xlink="http://www.w3.org/1999/xlink">
<g id="graph0" class="graph" transform="scale(1 1) rotate(0) translate(4 154)">
<title>G</title>
<polygon fill="#ffffff" stroke="transparent" points="-4,4 -4,-154 976,-154 976,4 -4,4"/>
<!-- leaf -->
<g id="node1" class="node">
<title>leaf</title>
<polygon fill="none" stroke="#000000" points="0,-50.5 0,-149.5 954,-149.5 954,-50.5 0,-50.5"/>
<text text-anchor="middle" x="477" y="-134.3" font-family="Times,serif" font-size="14.00" fill="#000000">leaf (8192 bytes)</text>
<polyline fill="none" stroke="#000000" points="0,-126.5 954,-126.5 "/>
<text text-anchor="middle" x="42.5" y="-92.3" font-family="Times,serif" font-size="14.00" fill="#000000">record count</text>
<text text-anchor="middle" x="42.5" y="-77.3" font-family="Times,serif" font-size="14.00" fill="#000000">(4 bytes)</text>
<polyline fill="none" stroke="#000000" points="85,-50.5 85,-126.5 "/>
<text text-anchor="middle" x="150" y="-111.3" font-family="Times,serif" font-size="14.00" fill="#000000">record header 1</text>
<polyline fill="none" stroke="#000000" points="85,-103.5 215,-103.5 "/>
<text text-anchor="middle" x="117.5" y="-88.3" font-family="Times,serif" font-size="14.00" fill="#000000">key 1</text>
<text text-anchor="middle" x="117.5" y="-73.3" font-family="Times,serif" font-size="14.00" fill="#000000">offset</text>
<text text-anchor="middle" x="117.5" y="-58.3" font-family="Times,serif" font-size="14.00" fill="#000000">(4 bytes)</text>
<polyline fill="none" stroke="#000000" points="150,-50.5 150,-103.5 "/>
<text text-anchor="middle" x="182.5" y="-88.3" font-family="Times,serif" font-size="14.00" fill="#000000">value 1</text>
<text text-anchor="middle" x="182.5" y="-73.3" font-family="Times,serif" font-size="14.00" fill="#000000">offset</text>
<text text-anchor="middle" x="182.5" y="-58.3" font-family="Times,serif" font-size="14.00" fill="#000000">(4 bytes)</text>
<polyline fill="none" stroke="#000000" points="215,-50.5 215,-126.5 "/>
<text text-anchor="middle" x="280" y="-111.3" font-family="Times,serif" font-size="14.00" fill="#000000">record header 2</text>
<polyline fill="none" stroke="#000000" points="215,-103.5 345,-103.5 "/>
<text text-anchor="middle" x="247.5" y="-88.3" font-family="Times,serif" font-size="14.00" fill="#000000">key 2</text>
<text text-anchor="middle" x="247.5" y="-73.3" font-family="Times,serif" font-size="14.00" fill="#000000">offset</text>
<text text-anchor="middle" x="247.5" y="-58.3" font-family="Times,serif" font-size="14.00" fill="#000000">(4 bytes)</text>
<polyline fill="none" stroke="#000000" points="280,-50.5 280,-103.5 "/>
<text text-anchor="middle" x="312.5" y="-88.3" font-family="Times,serif" font-size="14.00" fill="#000000">value 2</text>
<text text-anchor="middle" x="312.5" y="-73.3" font-family="Times,serif" font-size="14.00" fill="#000000">offset</text>
<text text-anchor="middle" x="312.5" y="-58.3" font-family="Times,serif" font-size="14.00" fill="#000000">(4 bytes)</text>
<polyline fill="none" stroke="#000000" points="345,-50.5 345,-126.5 "/>
<text text-anchor="middle" x="359" y="-84.8" font-family="Times,serif" font-size="14.00" fill="#000000">...</text>
<polyline fill="none" stroke="#000000" points="373,-50.5 373,-126.5 "/>
<text text-anchor="middle" x="438" y="-111.3" font-family="Times,serif" font-size="14.00" fill="#000000">record header 10</text>
<polyline fill="none" stroke="#000000" points="373,-103.5 503,-103.5 "/>
<text text-anchor="middle" x="405.5" y="-88.3" font-family="Times,serif" font-size="14.00" fill="#000000">key 10</text>
<text text-anchor="middle" x="405.5" y="-73.3" font-family="Times,serif" font-size="14.00" fill="#000000">offset</text>
<text text-anchor="middle" x="405.5" y="-58.3" font-family="Times,serif" font-size="14.00" fill="#000000">(4 bytes)</text>
<polyline fill="none" stroke="#000000" points="438,-50.5 438,-103.5 "/>
<text text-anchor="middle" x="470.5" y="-88.3" font-family="Times,serif" font-size="14.00" fill="#000000">value 10</text>
<text text-anchor="middle" x="470.5" y="-73.3" font-family="Times,serif" font-size="14.00" fill="#000000">offset</text>
<text text-anchor="middle" x="470.5" y="-58.3" font-family="Times,serif" font-size="14.00" fill="#000000">(4 bytes)</text>
<polyline fill="none" stroke="#000000" points="503,-50.5 503,-126.5 "/>
<text text-anchor="middle" x="553.5" y="-84.8" font-family="Times,serif" font-size="14.00" fill="#000000">... free space ...</text>
<polyline fill="none" stroke="#000000" points="604,-50.5 604,-126.5 "/>
<text text-anchor="middle" x="627.5" y="-92.3" font-family="Times,serif" font-size="14.00" fill="#000000">key 1</text>
<text text-anchor="middle" x="627.5" y="-77.3" font-family="Times,serif" font-size="14.00" fill="#000000">data</text>
<polyline fill="none" stroke="#000000" points="651,-50.5 651,-126.5 "/>
<text text-anchor="middle" x="679" y="-92.3" font-family="Times,serif" font-size="14.00" fill="#000000">value 1</text>
<text text-anchor="middle" x="679" y="-77.3" font-family="Times,serif" font-size="14.00" fill="#000000">data</text>
<polyline fill="none" stroke="#000000" points="707,-50.5 707,-126.5 "/>
<text text-anchor="middle" x="730.5" y="-92.3" font-family="Times,serif" font-size="14.00" fill="#000000">key 2</text>
<text text-anchor="middle" x="730.5" y="-77.3" font-family="Times,serif" font-size="14.00" fill="#000000">data</text>
<polyline fill="none" stroke="#000000" points="754,-50.5 754,-126.5 "/>
<text text-anchor="middle" x="782" y="-92.3" font-family="Times,serif" font-size="14.00" fill="#000000">value 2</text>
<text text-anchor="middle" x="782" y="-77.3" font-family="Times,serif" font-size="14.00" fill="#000000">data</text>
<polyline fill="none" stroke="#000000" points="810,-50.5 810,-126.5 "/>
<text text-anchor="middle" x="824" y="-84.8" font-family="Times,serif" font-size="14.00" fill="#000000">...</text>
<polyline fill="none" stroke="#000000" points="838,-50.5 838,-126.5 "/>
<text text-anchor="middle" x="864.5" y="-92.3" font-family="Times,serif" font-size="14.00" fill="#000000">key 10</text>
<text text-anchor="middle" x="864.5" y="-77.3" font-family="Times,serif" font-size="14.00" fill="#000000">data</text>
<polyline fill="none" stroke="#000000" points="891,-50.5 891,-126.5 "/>
<text text-anchor="middle" x="922.5" y="-92.3" font-family="Times,serif" font-size="14.00" fill="#000000">value 10</text>
<text text-anchor="middle" x="922.5" y="-77.3" font-family="Times,serif" font-size="14.00" fill="#000000">data</text>
</g>
<!-- leaf&#45;&gt;leaf -->
<g id="edge1" class="edge">
<title>leaf:ko1&#45;&gt;leaf:kd1</title>
<path fill="none" stroke="#000000" d="M116.0674,-50.4948C125.0519,-24.3073 175.1582,0 372.5,0 530.3056,0 593.9615,-19.4588 617.7277,-42.2364"/>
<polygon fill="#000000" stroke="#000000" points="615.2115,-44.6816 624.3368,-50.0649 620.5603,-40.1659 615.2115,-44.6816"/>
</g>
<!-- leaf&#45;&gt;leaf -->
<g id="edge2" class="edge">
<title>leaf:vo1&#45;&gt;leaf:vd1</title>
<path fill="none" stroke="#000000" d="M180.9529,-50.4948C189.6006,-24.3073 238.3809,0 430.5,0 584.1293,0 646.1005,-19.4588 669.1872,-42.2364"/>
<polygon fill="#000000" stroke="#000000" points="666.5567,-44.5484 675.6021,-50.0649 671.9711,-40.1117 666.5567,-44.5484"/>
</g>
<!-- leaf&#45;&gt;leaf -->
<g id="edge3" class="edge">
<title>leaf:ko2&#45;&gt;leaf:kd2</title>
<path fill="none" stroke="#000000" d="M245.8465,-50.4948C254.1816,-24.3073 301.7305,0 489,0 638.7513,0 699.1582,-19.4588 721.6138,-42.2364"/>
<polygon fill="#000000" stroke="#000000" points="718.8809,-44.423 727.8486,-50.0649 724.3565,-40.0621 718.8809,-44.423"/>
</g>
<!-- leaf&#45;&gt;leaf -->
<g id="edge4" class="edge">
<title>leaf:vo2&#45;&gt;leaf:vd2</title>
<path fill="none" stroke="#000000" d="M310.7319,-50.4948C318.7303,-24.3073 364.9531,0 547,0 691.942,0 750.7849,-19.29 772.7872,-41.9395"/>
<polygon fill="#000000" stroke="#000000" points="770.2087,-44.325 779.114,-50.0649 775.7318,-40.0244 770.2087,-44.325"/>
</g>
<!-- leaf&#45;&gt;leaf -->
<g id="edge5" class="edge">
<title>leaf:ko10&#45;&gt;leaf:kd10</title>
<path fill="none" stroke="#000000" d="M403.65,-50.4948C411.4079,-24.3073 456.6836,0 635,0 776.9719,0 834.609,-19.29 856.1217,-41.9395"/>
<polygon fill="#000000" stroke="#000000" points="853.4631,-44.2255 862.3035,-50.0649 859.0341,-39.9871 853.4631,-44.2255"/>
</g>
<!-- leaf&#45;&gt;leaf -->
<g id="edge6" class="edge">
<title>leaf:vo10&#45;&gt;leaf:vd10</title>
<path fill="none" stroke="#000000" d="M503.0992,-72.5748C676.117,-52.121 972,-53.9211 972,-82.5 972,-95.4677 969.8308,-102.9219 964.4931,-105.2854"/>
<polygon fill="#000000" stroke="#000000" points="964.3334,-101.7831 954.2894,-105.1548 964.2438,-108.7826 964.3334,-101.7831"/>
</g>
</g>
</svg>
