<?xml version="1.0" encoding="UTF-8" standalone="no"?>
<!DOCTYPE svg PUBLIC "-//W3C//DTD SVG 1.1//EN"
 "http://www.w3.org/Graphics/SVG/1.1/DTD/svg11.dtd">
<!-- Generated by graphviz version 2.40.1 (0)
 -->
<!-- Title: G Pages: 1 -->
<svg width="1040pt" height="408pt"
 viewBox="0.00 0.00 1040.00 408.00" xmlns="http://www.w3.org/2000/svg" xmlns:xlink="http://www.w3.org/1999/xlink">
<g id="graph0" class="graph" transform="scale(1 1) rotate(0) translate(4 404)">
<title>G</title>
<polygon fill="#ffffff" stroke="transparent" points="-4,4 -4,-404 1036,-404 1036,4 -4,4"/>
<g id="clust1" class="cluster">
<title>cluster1</title>
<polygon fill="none" stroke="#000000" stroke-width="2" points="365,-306 365,-392 759,-392 759,-306 365,-306"/>
<text text-anchor="middle" x="562" y="-376.8" font-family="Times,serif" font-size="14.00" fill="#000000">file storage</text>
</g>
<g id="clust2" class="cluster">
<title>cluster2</title>
<polygon fill="none" stroke="#000000" stroke-width="2" points="8,-8 8,-298 1024,-298 1024,-8 8,-8"/>
<text text-anchor="middle" x="516" y="-282.8" font-family="Times,serif" font-size="14.00" fill="#000000">B+ tree</text>
</g>
<!-- file_storage -->
<g id="node1" class="node">
<title>file_storage</title>
<polygon fill="none" stroke="#000000" points="373.5,-314.5 373.5,-360.5 750.5,-360.5 750.5,-314.5 373.5,-314.5"/>
<text text-anchor="middle" x="421" y="-333.8" font-family="Times,serif" font-size="14.00" fill="#000000">primary space</text>
<polyline fill="none" stroke="#000000" points="468.5,-314.5 468.5,-360.5 "/>
<text text-anchor="middle" x="609.5" y="-345.3" font-family="Times,serif" font-size="14.00" fill="#000000">space (mmap)</text>
<polyline fill="none" stroke="#000000" points="468.5,-337.5 750.5,-337.5 "/>
<text text-anchor="middle" x="478.5" y="-322.3" font-family="Times,serif" font-size="14.00" fill="#000000"> </text>
<polyline fill="none" stroke="#000000" points="488.5,-314.5 488.5,-337.5 "/>
<text text-anchor="middle" x="507.5" y="-322.3" font-family="Times,serif" font-size="14.00" fill="#000000">free</text>
<polyline fill="none" stroke="#000000" points="526.5,-314.5 526.5,-337.5 "/>
<text text-anchor="middle" x="536.5" y="-322.3" font-family="Times,serif" font-size="14.00" fill="#000000"> </text>
<polyline fill="none" stroke="#000000" points="546.5,-314.5 546.5,-337.5 "/>
<text text-anchor="middle" x="556.5" y="-322.3" font-family="Times,serif" font-size="14.00" fill="#000000"> </text>
<polyline fill="none" stroke="#000000" points="566.5,-314.5 566.5,-337.5 "/>
<text text-anchor="middle" x="576.5" y="-322.3" font-family="Times,serif" font-size="14.00" fill="#000000"> </text>
<polyline fill="none" stroke="#000000" points="586.5,-314.5 586.5,-337.5 "/>
<text text-anchor="middle" x="605.5" y="-322.3" font-family="Times,serif" font-size="14.00" fill="#000000">free</text>
<polyline fill="none" stroke="#000000" points="624.5,-314.5 624.5,-337.5 "/>
<text text-anchor="middle" x="634.5" y="-322.3" font-family="Times,serif" font-size="14.00" fill="#000000"> </text>
<polyline fill="none" stroke="#000000" points="644.5,-314.5 644.5,-337.5 "/>
<text text-anchor="middle" x="654.5" y="-322.3" font-family="Times,serif" font-size="14.00" fill="#000000"> </text>
<polyline fill="none" stroke="#000000" points="664.5,-314.5 664.5,-337.5 "/>
<text text-anchor="middle" x="674.5" y="-322.3" font-family="Times,serif" font-size="14.00" fill="#000000"> </text>
<polyline fill="none" stroke="#000000" points="684.5,-314.5 684.5,-337.5 "/>
<text text-anchor="middle" x="703.5" y="-322.3" font-family="Times,serif" font-size="14.00" fill="#000000">free</text>
<polyline fill="none" stroke="#000000" points="722.5,-314.5 722.5,-337.5 "/>
<text text-anchor="middle" x="736.5" y="-322.3" font-family="Times,serif" font-size="14.00" fill="#000000">...</text>
</g>
<!-- root -->
<g id="node2" class="node">
<title>root</title>
<polygon fill="none" stroke="#000000" points="393.5,-205.5 393.5,-266.5 480.5,-266.5 480.5,-205.5 393.5,-205.5"/>
<text text-anchor="middle" x="437" y="-251.3" font-family="Times,serif" font-size="14.00" fill="#000000">root</text>
<text text-anchor="middle" x="437" y="-236.3" font-family="Times,serif" font-size="14.00" fill="#000000">(non&#45;leaf)</text>
<polyline fill="none" stroke="#000000" points="393.5,-228.5 480.5,-228.5 "/>
<text text-anchor="middle" x="403.5" y="-213.3" font-family="Times,serif" font-size="14.00" fill="#000000"> </text>
<polyline fill="none" stroke="#000000" points="413.5,-205.5 413.5,-228.5 "/>
<text text-anchor="middle" x="437" y="-213.3" font-family="Times,serif" font-size="14.00" fill="#000000">key 9</text>
<polyline fill="none" stroke="#000000" points="460.5,-205.5 460.5,-228.5 "/>
<text text-anchor="middle" x="470.5" y="-213.3" font-family="Times,serif" font-size="14.00" fill="#000000"> </text>
</g>
<!-- file_storage&#45;&gt;root -->
<g id="edge7" class="edge">
<title>file_storage:p1&#45;&gt;root</title>
<path fill="none" stroke="#000000" d="M421,-314.5C421,-302.0039 422.9707,-288.6103 425.5288,-276.4881"/>
<polygon fill="#000000" stroke="#000000" points="428.9606,-277.1817 427.7854,-266.6522 422.1378,-275.6163 428.9606,-277.1817"/>
</g>
<!-- file_storage&#45;&gt;root -->
<g id="edge8" class="edge">
<title>file_storage:p2&#45;&gt;root</title>
<path fill="none" stroke="#000000" stroke-dasharray="1,5" d="M478,-314.5C478,-300.9 473.1053,-287.3265 466.6982,-275.3848"/>
<polygon fill="#000000" stroke="#000000" points="469.6292,-273.4634 461.56,-266.5976 463.5864,-276.9968 469.6292,-273.4634"/>
</g>
<!-- non_leaf_1 -->
<g id="node3" class="node">
<title>non_leaf_1</title>
<polygon fill="none" stroke="#000000" points="359.5,-122.5 359.5,-168.5 446.5,-168.5 446.5,-122.5 359.5,-122.5"/>
<text text-anchor="middle" x="403" y="-153.3" font-family="Times,serif" font-size="14.00" fill="#000000">non&#45;leaf 1</text>
<polyline fill="none" stroke="#000000" points="359.5,-145.5 446.5,-145.5 "/>
<text text-anchor="middle" x="369.5" y="-130.3" font-family="Times,serif" font-size="14.00" fill="#000000"> </text>
<polyline fill="none" stroke="#000000" points="379.5,-122.5 379.5,-145.5 "/>
<text text-anchor="middle" x="403" y="-130.3" font-family="Times,serif" font-size="14.00" fill="#000000">key 5</text>
<polyline fill="none" stroke="#000000" points="426.5,-122.5 426.5,-145.5 "/>
<text text-anchor="middle" x="436.5" y="-130.3" font-family="Times,serif" font-size="14.00" fill="#000000"> </text>
</g>
<!-- file_storage&#45;&gt;non_leaf_1 -->
<g id="edge9" class="edge">
<title>file_storage:p3&#45;&gt;non_leaf_1</title>
<path fill="none" stroke="#000000" stroke-dasharray="1,5" d="M536,-314.5C536,-301.3034 498.3423,-215.2253 490,-205 480.4134,-193.2495 467.916,-182.8713 455.3971,-174.2083"/>
<polygon fill="#000000" stroke="#000000" points="457.0322,-171.0932 446.7623,-168.4892 453.1668,-176.9292 457.0322,-171.0932"/>
</g>
<!-- non_leaf_2 -->
<g id="node4" class="node">
<title>non_leaf_2</title>
<polygon fill="none" stroke="#000000" points="464.5,-122.5 464.5,-168.5 557.5,-168.5 557.5,-122.5 464.5,-122.5"/>
<text text-anchor="middle" x="511" y="-153.3" font-family="Times,serif" font-size="14.00" fill="#000000">non&#45;leaf 2</text>
<polyline fill="none" stroke="#000000" points="464.5,-145.5 557.5,-145.5 "/>
<text text-anchor="middle" x="474.5" y="-130.3" font-family="Times,serif" font-size="14.00" fill="#000000"> </text>
<polyline fill="none" stroke="#000000" points="484.5,-122.5 484.5,-145.5 "/>
<text text-anchor="middle" x="511" y="-130.3" font-family="Times,serif" font-size="14.00" fill="#000000">key 13</text>
<polyline fill="none" stroke="#000000" points="537.5,-122.5 537.5,-145.5 "/>
<text text-anchor="middle" x="547.5" y="-130.3" font-family="Times,serif" font-size="14.00" fill="#000000"> </text>
</g>
<!-- file_storage&#45;&gt;non_leaf_2 -->
<g id="edge10" class="edge">
<title>file_storage:p4&#45;&gt;non_leaf_2</title>
<path fill="none" stroke="#000000" stroke-dasharray="1,5" d="M556,-314.5C556,-265.7247 538.2804,-211.6165 525.0797,-178.0744"/>
<polygon fill="#000000" stroke="#000000" points="528.3119,-176.7311 521.3239,-168.7675 521.8205,-179.3507 528.3119,-176.7311"/>
</g>
<!-- leaf_11 -->
<g id="node5" class="node">
<title>leaf_11</title>
<polygon fill="none" stroke="#000000" points="258,-16.5 258,-85.5 482,-85.5 482,-16.5 258,-16.5"/>
<text text-anchor="middle" x="370" y="-70.3" font-family="Times,serif" font-size="14.00" fill="#000000">leaf 1</text>
<polyline fill="none" stroke="#000000" points="258,-62.5 482,-62.5 "/>
<text text-anchor="middle" x="286" y="-47.3" font-family="Times,serif" font-size="14.00" fill="#000000">key 1</text>
<polyline fill="none" stroke="#000000" points="314,-39.5 314,-62.5 "/>
<text text-anchor="middle" x="342" y="-47.3" font-family="Times,serif" font-size="14.00" fill="#000000">key 2</text>
<polyline fill="none" stroke="#000000" points="370,-39.5 370,-62.5 "/>
<text text-anchor="middle" x="398" y="-47.3" font-family="Times,serif" font-size="14.00" fill="#000000">key 3</text>
<polyline fill="none" stroke="#000000" points="426,-39.5 426,-62.5 "/>
<text text-anchor="middle" x="454" y="-47.3" font-family="Times,serif" font-size="14.00" fill="#000000">key 4</text>
<polyline fill="none" stroke="#000000" points="258,-39.5 482,-39.5 "/>
<text text-anchor="middle" x="286" y="-24.3" font-family="Times,serif" font-size="14.00" fill="#000000">value 1</text>
<polyline fill="none" stroke="#000000" points="314,-16.5 314,-39.5 "/>
<text text-anchor="middle" x="342" y="-24.3" font-family="Times,serif" font-size="14.00" fill="#000000">value 2</text>
<polyline fill="none" stroke="#000000" points="370,-16.5 370,-39.5 "/>
<text text-anchor="middle" x="398" y="-24.3" font-family="Times,serif" font-size="14.00" fill="#000000">value 3</text>
<polyline fill="none" stroke="#000000" points="426,-16.5 426,-39.5 "/>
<text text-anchor="middle" x="454" y="-24.3" font-family="Times,serif" font-size="14.00" fill="#000000">value 4</text>
</g>
<!-- file_storage&#45;&gt;leaf_11 -->
<g id="edge11" class="edge">
<title>file_storage:p5&#45;&gt;leaf_11</title>
<path fill="none" stroke="#000000" stroke-dasharray="1,5" d="M577,-314.5C577,-228.8291 618.0517,-190.7985 567,-122 561.4329,-114.4977 528.5765,-101.5735 491.2426,-88.791"/>
<polygon fill="#000000" stroke="#000000" points="492.2626,-85.4413 481.6683,-85.5477 490.0167,-92.0712 492.2626,-85.4413"/>
</g>
<!-- leaf_21 -->
<g id="node7" class="node">
<title>leaf_21</title>
<polygon fill="none" stroke="#000000" points="500.5,-16.5 500.5,-85.5 745.5,-85.5 745.5,-16.5 500.5,-16.5"/>
<text text-anchor="middle" x="623" y="-70.3" font-family="Times,serif" font-size="14.00" fill="#000000">leaf 3</text>
<polyline fill="none" stroke="#000000" points="500.5,-62.5 745.5,-62.5 "/>
<text text-anchor="middle" x="528.5" y="-47.3" font-family="Times,serif" font-size="14.00" fill="#000000">key 9</text>
<polyline fill="none" stroke="#000000" points="556.5,-39.5 556.5,-62.5 "/>
<text text-anchor="middle" x="588" y="-47.3" font-family="Times,serif" font-size="14.00" fill="#000000">key 10</text>
<polyline fill="none" stroke="#000000" points="619.5,-39.5 619.5,-62.5 "/>
<text text-anchor="middle" x="651" y="-47.3" font-family="Times,serif" font-size="14.00" fill="#000000">key 11</text>
<polyline fill="none" stroke="#000000" points="682.5,-39.5 682.5,-62.5 "/>
<text text-anchor="middle" x="714" y="-47.3" font-family="Times,serif" font-size="14.00" fill="#000000">key 12</text>
<polyline fill="none" stroke="#000000" points="500.5,-39.5 745.5,-39.5 "/>
<text text-anchor="middle" x="528.5" y="-24.3" font-family="Times,serif" font-size="14.00" fill="#000000">value 9</text>
<polyline fill="none" stroke="#000000" points="556.5,-16.5 556.5,-39.5 "/>
<text text-anchor="middle" x="588" y="-24.3" font-family="Times,serif" font-size="14.00" fill="#000000">value 10</text>
<polyline fill="none" stroke="#000000" points="619.5,-16.5 619.5,-39.5 "/>
<text text-anchor="middle" x="651" y="-24.3" font-family="Times,serif" font-size="14.00" fill="#000000">value 11</text>
<polyline fill="none" stroke="#000000" points="682.5,-16.5 682.5,-39.5 "/>
<text text-anchor="middle" x="714" y="-24.3" font-family="Times,serif" font-size="14.00" fill="#000000">value 12</text>
</g>
<!-- file_storage&#45;&gt;leaf_21 -->
<g id="edge12" class="edge">
<title>file_storage:p6&#45;&gt;leaf_21</title>
<path fill="none" stroke="#000000" stroke-dasharray="1,5" d="M635,-314.5C635,-237.5979 629.8363,-148.2018 626.2835,-95.795"/>
<polygon fill="#000000" stroke="#000000" points="629.7537,-95.242 625.5743,-85.5064 622.7703,-95.7234 629.7537,-95.242"/>
</g>
<!-- file_storage&#45;&gt;leaf_21 -->
<g id="edge13" class="edge">
<title>file_storage:p7&#45;&gt;leaf_21</title>
<path fill="none" stroke="#000000" stroke-dasharray="1,5" d="M655,-314.5C655,-228.7784 657.3688,-206.5088 643,-122 641.5184,-113.2859 639.3818,-104.1093 637.0511,-95.3532"/>
<polygon fill="#000000" stroke="#000000" points="640.4156,-94.388 634.3618,-85.693 633.672,-96.2654 640.4156,-94.388"/>
</g>
<!-- leaf_22 -->
<g id="node8" class="node">
<title>leaf_22</title>
<polygon fill="none" stroke="#000000" points="764,-16.5 764,-85.5 1016,-85.5 1016,-16.5 764,-16.5"/>
<text text-anchor="middle" x="890" y="-70.3" font-family="Times,serif" font-size="14.00" fill="#000000">leaf 4</text>
<polyline fill="none" stroke="#000000" points="764,-62.5 1016,-62.5 "/>
<text text-anchor="middle" x="795.5" y="-47.3" font-family="Times,serif" font-size="14.00" fill="#000000">key 13</text>
<polyline fill="none" stroke="#000000" points="827,-39.5 827,-62.5 "/>
<text text-anchor="middle" x="858.5" y="-47.3" font-family="Times,serif" font-size="14.00" fill="#000000">key 14</text>
<polyline fill="none" stroke="#000000" points="890,-39.5 890,-62.5 "/>
<text text-anchor="middle" x="921.5" y="-47.3" font-family="Times,serif" font-size="14.00" fill="#000000">key 15</text>
<polyline fill="none" stroke="#000000" points="953,-39.5 953,-62.5 "/>
<text text-anchor="middle" x="984.5" y="-47.3" font-family="Times,serif" font-size="14.00" fill="#000000">key 16</text>
<polyline fill="none" stroke="#000000" points="764,-39.5 1016,-39.5 "/>
<text text-anchor="middle" x="795.5" y="-24.3" font-family="Times,serif" font-size="14.00" fill="#000000">value 13</text>
<polyline fill="none" stroke="#000000" points="827,-16.5 827,-39.5 "/>
<text text-anchor="middle" x="858.5" y="-24.3" font-family="Times,serif" font-size="14.00" fill="#000000">value 14</text>
<polyline fill="none" stroke="#000000" points="890,-16.5 890,-39.5 "/>
<text text-anchor="middle" x="921.5" y="-24.3" font-family="Times,serif" font-size="14.00" fill="#000000">value 15</text>
<polyline fill="none" stroke="#000000" points="953,-16.5 953,-39.5 "/>
<text text-anchor="middle" x="984.5" y="-24.3" font-family="Times,serif" font-size="14.00" fill="#000000">value 16</text>
</g>
<!-- file_storage&#45;&gt;leaf_22 -->
<g id="edge14" class="edge">
<title>file_storage:p8&#45;&gt;leaf_22</title>
<path fill="none" stroke="#000000" stroke-dasharray="1,5" d="M675,-314.5C675,-218.017 762.6057,-137.3426 825.9739,-91.6082"/>
<polygon fill="#000000" stroke="#000000" points="828.2238,-94.3034 834.3526,-85.6611 824.1721,-88.5951 828.2238,-94.3034"/>
</g>
<!-- root&#45;&gt;non_leaf_1 -->
<g id="edge1" class="edge">
<title>root:p1&#45;&gt;non_leaf_1</title>
<path fill="none" stroke="#000000" d="M403,-205C403,-196.4811 403,-187.2761 403,-178.7111"/>
<polygon fill="#000000" stroke="#000000" points="406.5001,-178.6703 403,-168.6703 399.5001,-178.6703 406.5001,-178.6703"/>
</g>
<!-- root&#45;&gt;non_leaf_2 -->
<g id="edge2" class="edge">
<title>root:p2&#45;&gt;non_leaf_2</title>
<path fill="none" stroke="#000000" d="M471,-205C471,-195.0228 474.9215,-185.4603 480.3088,-177.0309"/>
<polygon fill="#000000" stroke="#000000" points="483.3206,-178.8392 486.3506,-168.6869 477.6509,-174.7338 483.3206,-178.8392"/>
</g>
<!-- non_leaf_1&#45;&gt;leaf_11 -->
<g id="edge3" class="edge">
<title>non_leaf_1:p1&#45;&gt;leaf_11</title>
<path fill="none" stroke="#000000" d="M369,-122.5C369,-113.8448 369.0742,-104.6009 369.1821,-95.7308"/>
<polygon fill="#000000" stroke="#000000" points="372.6842,-95.5947 369.3219,-85.5475 365.6849,-95.4985 372.6842,-95.5947"/>
</g>
<!-- leaf_12 -->
<g id="node6" class="node">
<title>leaf_12</title>
<polygon fill="none" stroke="#000000" points="16,-16.5 16,-85.5 240,-85.5 240,-16.5 16,-16.5"/>
<text text-anchor="middle" x="128" y="-70.3" font-family="Times,serif" font-size="14.00" fill="#000000">leaf 2</text>
<polyline fill="none" stroke="#000000" points="16,-62.5 240,-62.5 "/>
<text text-anchor="middle" x="44" y="-47.3" font-family="Times,serif" font-size="14.00" fill="#000000">key 5</text>
<polyline fill="none" stroke="#000000" points="72,-39.5 72,-62.5 "/>
<text text-anchor="middle" x="100" y="-47.3" font-family="Times,serif" font-size="14.00" fill="#000000">key 6</text>
<polyline fill="none" stroke="#000000" points="128,-39.5 128,-62.5 "/>
<text text-anchor="middle" x="156" y="-47.3" font-family="Times,serif" font-size="14.00" fill="#000000">key 7</text>
<polyline fill="none" stroke="#000000" points="184,-39.5 184,-62.5 "/>
<text text-anchor="middle" x="212" y="-47.3" font-family="Times,serif" font-size="14.00" fill="#000000">key 8</text>
<polyline fill="none" stroke="#000000" points="16,-39.5 240,-39.5 "/>
<text text-anchor="middle" x="44" y="-24.3" font-family="Times,serif" font-size="14.00" fill="#000000">value 5</text>
<polyline fill="none" stroke="#000000" points="72,-16.5 72,-39.5 "/>
<text text-anchor="middle" x="100" y="-24.3" font-family="Times,serif" font-size="14.00" fill="#000000">value 6</text>
<polyline fill="none" stroke="#000000" points="128,-16.5 128,-39.5 "/>
<text text-anchor="middle" x="156" y="-24.3" font-family="Times,serif" font-size="14.00" fill="#000000">value 7</text>
<polyline fill="none" stroke="#000000" points="184,-16.5 184,-39.5 "/>
<text text-anchor="middle" x="212" y="-24.3" font-family="Times,serif" font-size="14.00" fill="#000000">value 8</text>
</g>
<!-- non_leaf_1&#45;&gt;leaf_12 -->
<g id="edge4" class="edge">
<title>non_leaf_1:p2&#45;&gt;leaf_12</title>
<path fill="none" stroke="#000000" d="M437,-122.5C437,-82.5189 307.5898,-94.2512 250.4033,-85.7666"/>
<polygon fill="#000000" stroke="#000000" points="250.7768,-82.2753 240.3004,-83.855 249.4753,-89.1532 250.7768,-82.2753"/>
</g>
<!-- non_leaf_2&#45;&gt;leaf_21 -->
<g id="edge5" class="edge">
<title>non_leaf_2:p1&#45;&gt;leaf_21</title>
<path fill="none" stroke="#000000" d="M474,-122.5C474,-111.1279 488.2863,-99.943 508.0114,-89.9197"/>
<polygon fill="#000000" stroke="#000000" points="509.6025,-93.0383 517.097,-85.5493 506.5681,-86.7301 509.6025,-93.0383"/>
</g>
<!-- non_leaf_2&#45;&gt;leaf_22 -->
<g id="edge6" class="edge">
<title>non_leaf_2:p2&#45;&gt;leaf_22</title>
<path fill="none" stroke="#000000" d="M558,-133.5C638.2184,-133.5 726.207,-110.5349 791.4367,-88.8376"/>
<polygon fill="#000000" stroke="#000000" points="792.9426,-92.0234 801.2983,-85.5094 790.7041,-85.3909 792.9426,-92.0234"/>
</g>
</g>
</svg>
