<?xml version="1.0" encoding="UTF-8" standalone="no"?>
<!DOCTYPE svg PUBLIC "-//W3C//DTD SVG 1.1//EN"
 "http://www.w3.org/Graphics/SVG/1.1/DTD/svg11.dtd">
<!-- Generated by graphviz version 2.40.1 (0)
 -->
<!-- Title: G Pages: 1 -->
<svg width="654pt" height="223pt"
 viewBox="0.00 0.00 654.00 223.00" xmlns="http://www.w3.org/2000/svg" xmlns:xlink="http://www.w3.org/1999/xlink">
<g id="graph0" class="graph" transform="scale(1 1) rotate(0) translate(4 219)">
<title>G</title>
<polygon fill="#ffffff" stroke="transparent" points="-4,4 -4,-219 650,-219 650,4 -4,4"/>
<g id="clust1" class="cluster">
<title>cluster1</title>
<polygon fill="none" stroke="#000000" stroke-width="2" points="8,-8 8,-207 314,-207 314,-8 8,-8"/>
<text text-anchor="middle" x="161" y="-191.8" font-family="Times,serif" font-size="14.00" fill="#000000">Key</text>
</g>
<g id="clust2" class="cluster">
<title>cluster2</title>
<polygon fill="none" stroke="#000000" stroke-width="2" points="322,-8 322,-207 638,-207 638,-8 322,-8"/>
<text text-anchor="middle" x="480" y="-191.8" font-family="Times,serif" font-size="14.00" fill="#000000">Value</text>
</g>
<!-- key1 -->
<g id="node1" class="node">
<title>key1</title>
<polygon fill="none" stroke="#000000" points="204.5,-114.5 204.5,-175.5 305.5,-175.5 305.5,-114.5 204.5,-114.5"/>
<text text-anchor="middle" x="255" y="-160.3" font-family="Times,serif" font-size="14.00" fill="#000000">key (len &lt; 257)</text>
<polyline fill="none" stroke="#000000" points="204.5,-152.5 305.5,-152.5 "/>
<text text-anchor="middle" x="255" y="-137.3" font-family="Times,serif" font-size="14.00" fill="#000000">...</text>
<text text-anchor="middle" x="255" y="-122.3" font-family="Times,serif" font-size="14.00" fill="#000000">(N bytes)</text>
</g>
<!-- key2 -->
<g id="node2" class="node">
<title>key2</title>
<polygon fill="none" stroke="#000000" points="16,-114.5 16,-175.5 186,-175.5 186,-114.5 16,-114.5"/>
<text text-anchor="middle" x="101" y="-160.3" font-family="Times,serif" font-size="14.00" fill="#000000">key (len == 257)</text>
<polyline fill="none" stroke="#000000" points="16,-152.5 186,-152.5 "/>
<text text-anchor="middle" x="55" y="-137.3" font-family="Times,serif" font-size="14.00" fill="#000000">...</text>
<text text-anchor="middle" x="55" y="-122.3" font-family="Times,serif" font-size="14.00" fill="#000000">(249 bytes)</text>
<polyline fill="none" stroke="#000000" points="94,-114.5 94,-152.5 "/>
<text text-anchor="middle" x="140" y="-137.3" font-family="Times,serif" font-size="14.00" fill="#000000">overflow addr</text>
<text text-anchor="middle" x="140" y="-122.3" font-family="Times,serif" font-size="14.00" fill="#000000">(8 bytes)</text>
</g>
<!-- key2_overflow -->
<g id="node3" class="node">
<title>key2_overflow</title>
<polygon fill="none" stroke="#000000" points="94,-16.5 94,-77.5 186,-77.5 186,-16.5 94,-16.5"/>
<text text-anchor="middle" x="140" y="-62.3" font-family="Times,serif" font-size="14.00" fill="#000000">key overflow</text>
<polyline fill="none" stroke="#000000" points="94,-54.5 186,-54.5 "/>
<text text-anchor="middle" x="140" y="-39.3" font-family="Times,serif" font-size="14.00" fill="#000000">...</text>
<text text-anchor="middle" x="140" y="-24.3" font-family="Times,serif" font-size="14.00" fill="#000000">(N&#45;249 bytes)</text>
</g>
<!-- key2&#45;&gt;key2_overflow -->
<g id="edge1" class="edge">
<title>key2:oa&#45;&gt;key2_overflow</title>
<path fill="none" stroke="#000000" d="M140,-114C140,-105.565 140,-96.5327 140,-87.9183"/>
<polygon fill="#000000" stroke="#000000" points="143.5001,-87.686 140,-77.6861 136.5001,-87.6861 143.5001,-87.686"/>
</g>
<!-- value1 -->
<g id="node4" class="node">
<title>value1</title>
<polygon fill="none" stroke="#000000" points="518.5,-114.5 518.5,-175.5 629.5,-175.5 629.5,-114.5 518.5,-114.5"/>
<text text-anchor="middle" x="574" y="-160.3" font-family="Times,serif" font-size="14.00" fill="#000000">value (len &lt; 129)</text>
<polyline fill="none" stroke="#000000" points="518.5,-152.5 629.5,-152.5 "/>
<text text-anchor="middle" x="574" y="-137.3" font-family="Times,serif" font-size="14.00" fill="#000000">...</text>
<text text-anchor="middle" x="574" y="-122.3" font-family="Times,serif" font-size="14.00" fill="#000000">(N bytes)</text>
</g>
<!-- value2 -->
<g id="node5" class="node">
<title>value2</title>
<polygon fill="none" stroke="#000000" points="330,-114.5 330,-175.5 500,-175.5 500,-114.5 330,-114.5"/>
<text text-anchor="middle" x="415" y="-160.3" font-family="Times,serif" font-size="14.00" fill="#000000">value (len == 129)</text>
<polyline fill="none" stroke="#000000" points="330,-152.5 500,-152.5 "/>
<text text-anchor="middle" x="369" y="-137.3" font-family="Times,serif" font-size="14.00" fill="#000000">...</text>
<text text-anchor="middle" x="369" y="-122.3" font-family="Times,serif" font-size="14.00" fill="#000000">(121 bytes)</text>
<polyline fill="none" stroke="#000000" points="408,-114.5 408,-152.5 "/>
<text text-anchor="middle" x="454" y="-137.3" font-family="Times,serif" font-size="14.00" fill="#000000">overflow addr</text>
<text text-anchor="middle" x="454" y="-122.3" font-family="Times,serif" font-size="14.00" fill="#000000">(8 bytes)</text>
</g>
<!-- value2_overflow -->
<g id="node6" class="node">
<title>value2_overflow</title>
<polygon fill="none" stroke="#000000" points="405,-16.5 405,-77.5 503,-77.5 503,-16.5 405,-16.5"/>
<text text-anchor="middle" x="454" y="-62.3" font-family="Times,serif" font-size="14.00" fill="#000000">value overflow</text>
<polyline fill="none" stroke="#000000" points="405,-54.5 503,-54.5 "/>
<text text-anchor="middle" x="454" y="-39.3" font-family="Times,serif" font-size="14.00" fill="#000000">...</text>
<text text-anchor="middle" x="454" y="-24.3" font-family="Times,serif" font-size="14.00" fill="#000000">(N&#45;121 bytes)</text>
</g>
<!-- value2&#45;&gt;value2_overflow -->
<g id="edge2" class="edge">
<title>value2:oa&#45;&gt;value2_overflow</title>
<path fill="none" stroke="#000000" d="M454,-114C454,-105.565 454,-96.5327 454,-87.9183"/>
<polygon fill="#000000" stroke="#000000" points="457.5001,-87.686 454,-77.6861 450.5001,-87.6861 457.5001,-87.686"/>
</g>
</g>
</svg>
